HIERARCHY
ROOT reference
{
  OFFSET 0 0 0
  CHANNELS 6 Xposition Yposition Zposition Zrotation Xrotation Yrotation
  JOINT Hips
  {
    OFFSET 350.331 86.7696 215.823
    CHANNELS 3 Zrotation Xrotation Yrotation
    JOINT RightUpLeg
    {
      OFFSET -9.29271 -1.56052 -0.0234997
      CHANNELS 3 Zrotation Xrotation Yrotation
      JOINT RightLeg
      {
        OFFSET -0.0199852 -41.8973 0.0465042
        CHANNELS 3 Zrotation Xrotation Yrotation
        JOINT RightFoot
        {
          OFFSET -0.344404 -43.5008 0.46033
          CHANNELS 3 Zrotation Xrotation Yrotation
          End Site
          {
            OFFSET 0 -7.69 17.5
          }
        }
      }
    }
    JOINT LeftUpLeg
    {
      OFFSET 9.27671 -1.61046 0.00923455
      CHANNELS 3 Zrotation Xrotation Yrotation
      JOINT LeftLeg
      {
        OFFSET 0.0572944 -41.8832 0.025786
        CHANNELS 3 Zrotation Xrotation Yrotation
        JOINT LeftFoot
        {
          OFFSET 0.630082 -40.4663 0.064708
          CHANNELS 3 Zrotation Xrotation Yrotation
          End Site
          {
            OFFSET 0 -7.69 17.5
          }
        }
      }
    }
    JOINT Spine
    {
      OFFSET 0.0336257 14.3009 0.0467062
      CHANNELS 3 Zrotation Xrotation Yrotation
      JOINT Spine1
      {
        OFFSET 0.0295985 9.72711 0.0239471
        CHANNELS 3 Zrotation Xrotation Yrotation
        JOINT Spine2
        {
          OFFSET 0.0515174 10.1206 0.00128176
          CHANNELS 3 Zrotation Xrotation Yrotation
          JOINT Spine3
          {
            OFFSET 0.0546141 9.71668 0.0122483
            CHANNELS 3 Zrotation Xrotation Yrotation
            JOINT Neck
            {
              OFFSET 0.0872189 10.3831 0.0511468
              CHANNELS 3 Zrotation Xrotation Yrotation
              JOINT Head
              {
                OFFSET 0.0544 9.47189 0.0313815
                CHANNELS 3 Zrotation Xrotation Yrotation
                End Site
                {
                  OFFSET 0 15.95 0
                }
              }
            }
            JOINT RightShoulder
            {
              OFFSET -3.15364 6.93551 0.0260198
              CHANNELS 3 Zrotation Xrotation Yrotation
              JOINT RightArm
              {
                OFFSET -12.7567 0.0626665 0.0664987
                CHANNELS 3 Zrotation Xrotation Yrotation
                JOINT RightForeArm
                {
                  OFFSET -26.5087 -0.073346 0.274032
                  CHANNELS 3 Zrotation Xrotation Yrotation
                  JOINT RightHand
                  {
                    OFFSET -26.0005 -0.196673 0.105827
                    CHANNELS 3 Zrotation Xrotation Yrotation
                    JOINT RightHandThumb1
                    {
                      OFFSET -2.48905 0.190105 3.12053
                      CHANNELS 3 Zrotation Xrotation Yrotation
                      JOINT RightHandThumb2
                      {
                        OFFSET -3.68274 0 0
                        CHANNELS 3 Zrotation Xrotation Yrotation
                        JOINT RightHandThumb3
                        {
                          OFFSET -2.55832 0 0
                          CHANNELS 3 Zrotation Xrotation Yrotation
                          End Site
                          {
                            OFFSET -2.194 0 0
                          }
                        }
                      }
                    }
                    JOINT RightInHandIndex
                    {
                      OFFSET -3.22368 0.508421 1.97842
                      CHANNELS 3 Zrotation Xrotation Yrotation
                      JOINT RightHandIndex1
                      {
                        OFFSET -5.21684 -0.091368 0.999158
                        CHANNELS 3 Zrotation Xrotation Yrotation
                        JOINT RightHandIndex2
                        {
                          OFFSET -3.61937 0 0
                          CHANNELS 3 Zrotation Xrotation Yrotation
                          JOINT RightHandIndex3
                          {
                            OFFSET -2.0521 0 0
                            CHANNELS 3 Zrotation Xrotation Yrotation
                            End Site
                            {
                              OFFSET -1.805 0 0
                            }
                          }
                        }
                      }
                    }
                    JOINT RightInHandMiddle
                    {
                      OFFSET -3.38211 0.517263 0.756737
                      CHANNELS 3 Zrotation Xrotation Yrotation
                      JOINT RightHandMiddle1
                      {
                        OFFSET -5.17411 -0.084 0.313895
                        CHANNELS 3 Zrotation Xrotation Yrotation
                        JOINT RightHandMiddle2
                        {
                          OFFSET -3.94947 0 0
                          CHANNELS 3 Zrotation Xrotation Yrotation
                          JOINT RightHandMiddle3
                          {
                            OFFSET -2.47579 0 0
                            CHANNELS 3 Zrotation Xrotation Yrotation
                            End Site
                            {
                              OFFSET -1.975 0 0
                            }
                          }
                        }
                      }
                    }
                    JOINT RightInHandRing
                    {
                      OFFSET -3.36516 0.537895 -0.128947
                      CHANNELS 3 Zrotation Xrotation Yrotation
                      JOINT RightHandRing1
                      {
                        OFFSET -4.63474 -0.022105 -0.478947
                        CHANNELS 3 Zrotation Xrotation Yrotation
                        JOINT RightHandRing2
                        {
                          OFFSET -3.44238 0 0
                          CHANNELS 3 Zrotation Xrotation Yrotation
                          JOINT RightHandRing3
                          {
                            OFFSET -2.3881 0 0
                            CHANNELS 3 Zrotation Xrotation Yrotation
                            End Site
                            {
                              OFFSET -1.857 0 0
                            }
                          }
                        }
                      }
                    }
                    JOINT RightInHandPinky
                    {
                      OFFSET -3.16105 0.469368 -1.20179
                      CHANNELS 3 Zrotation Xrotation Yrotation
                      JOINT RightHandPinky1
                      {
                        OFFSET -4.14105 -0.022105 -1.09053
                        CHANNELS 3 Zrotation Xrotation Yrotation
                        JOINT RightHandPinky2
                        {
                          OFFSET -2.75653 0 0
                          CHANNELS 3 Zrotation Xrotation Yrotation
                          JOINT RightHandPinky3
                          {
                            OFFSET -1.74189 0 0
                            CHANNELS 3 Zrotation Xrotation Yrotation
                            End Site
                            {
                              OFFSET -1.645 0 0
                            }
                          }
                        }
                      }
                    }
                  }
                }
              }
            }
            JOINT LeftShoulder
            {
              OFFSET 3.27252 6.91581 -0.0198585
              CHANNELS 3 Zrotation Xrotation Yrotation
              JOINT LeftArm
              {
                OFFSET 12.8319 -0.0466028 -0.0574599
                CHANNELS 3 Zrotation Xrotation Yrotation
                JOINT LeftForeArm
                {
                  OFFSET 26.4942 -0.039105 -0.0936
                  CHANNELS 3 Zrotation Xrotation Yrotation
                  JOINT LeftHand
                  {
                    OFFSET 26.0008 0.022674 -0.016655
                    CHANNELS 3 Zrotation Xrotation Yrotation
                    JOINT LeftHandThumb1
                    {
                      OFFSET 2.48905 0.190105 3.12053
                      CHANNELS 3 Zrotation Xrotation Yrotation
                      JOINT LeftHandThumb2
                      {
                        OFFSET 3.68274 0 0
                        CHANNELS 3 Zrotation Xrotation Yrotation
                        JOINT LeftHandThumb3
                        {
                          OFFSET 2.55832 0 0
                          CHANNELS 3 Zrotation Xrotation Yrotation
                          End Site
                          {
                            OFFSET 2.194 0 0
                          }
                        }
                      }
                    }
                    JOINT LeftInHandIndex
                    {
                      OFFSET 3.22368 0.508421 1.97842
                      CHANNELS 3 Zrotation Xrotation Yrotation
                      JOINT LeftHandIndex1
                      {
                        OFFSET 5.21684 -0.091368 0.999158
                        CHANNELS 3 Zrotation Xrotation Yrotation
                        JOINT LeftHandIndex2
                        {
                          OFFSET 3.61937 0 0
                          CHANNELS 3 Zrotation Xrotation Yrotation
                          JOINT LeftHandIndex3
                          {
                            OFFSET 2.0521 0 0
                            CHANNELS 3 Zrotation Xrotation Yrotation
                            End Site
                            {
                              OFFSET 1.805 0 0
                            }
                          }
                        }
                      }
                    }
                    JOINT LeftInHandMiddle
                    {
                      OFFSET 3.38211 0.517263 0.756737
                      CHANNELS 3 Zrotation Xrotation Yrotation
                      JOINT LeftHandMiddle1
                      {
                        OFFSET 5.17411 -0.084 0.313895
                        CHANNELS 3 Zrotation Xrotation Yrotation
                        JOINT LeftHandMiddle2
                        {
                          OFFSET 3.94947 0 0
                          CHANNELS 3 Zrotation Xrotation Yrotation
                          JOINT LeftHandMiddle3
                          {
                            OFFSET 2.47579 0 0
                            CHANNELS 3 Zrotation Xrotation Yrotation
                            End Site
                            {
                              OFFSET 1.975 0 0
                            }
                          }
                        }
                      }
                    }
                    JOINT LeftInHandRing
                    {
                      OFFSET 3.36516 0.537895 -0.128947
                      CHANNELS 3 Zrotation Xrotation Yrotation
                      JOINT LeftHandRing1
                      {
                        OFFSET 4.63474 -0.022105 -0.478947
                        CHANNELS 3 Zrotation Xrotation Yrotation
                        JOINT LeftHandRing2
                        {
                          OFFSET 3.44238 0 0
                          CHANNELS 3 Zrotation Xrotation Yrotation
                          JOINT LeftHandRing3
                          {
                            OFFSET 2.3881 0 0
                            CHANNELS 3 Zrotation Xrotation Yrotation
                            End Site
                            {
                              OFFSET 1.857 0 0
                            }
                          }
                        }
                      }
                    }
                    JOINT LeftInHandPinky
                    {
                      OFFSET 3.16105 0.469368 -1.20179
                      CHANNELS 3 Zrotation Xrotation Yrotation
                      JOINT LeftHandPinky1
                      {
                        OFFSET 4.14105 -0.022105 -1.09053
                        CHANNELS 3 Zrotation Xrotation Yrotation
                        JOINT LeftHandPinky2
                        {
                          OFFSET 2.75653 0 0
                          CHANNELS 3 Zrotation Xrotation Yrotation
                          JOINT LeftHandPinky3
                          {
                            OFFSET 1.74189 0 0
                            CHANNELS 3 Zrotation Xrotation Yrotation
                            End Site
                            {
                              OFFSET 1.645 0 0
                            }
                          }
                        }
                      }
                    }
                  }
                }
              }
            }
          }
        }
      }
    }
  }
}
MOTION
Frames: 2
Frame Time: 0.00833333
3.000000000000000000e+02 0.000000000000000000e+00 0.000000000000000000e+00 0.000000000000000000e+00 0.000000000000000000e+00 0.000000000000000000e+00 1.265467513333124600e-02 2.345854059651494850e-02 -2.996938265020977418e-02 5.233947806594697189e-02 7.343423946805286047e-03 -2.481187644206583193e-02 7.614415152437368529e-04 -1.811769668908539202e-02 -7.002289556841342216e-03 -2.646210443197827625e-02 4.167313318474839823e-02 5.694997592469083769e-02 2.064249034888918088e-02 -1.320610107951436345e-02 7.161277691563874490e-04 -8.829579642372313922e-03 1.468292316846864926e-02 4.752947634535403809e-02 1.523054003537378971e-02 2.713673376728555769e-02 -1.652958768889863095e-02 1.296246196416712959e-02 -2.157536272626175370e-03 2.781128825188005846e-02 3.443694998674856969e-03 6.238301030221723043e-04 6.636634538228504930e-03 5.512000415789953221e-03 5.972898899780619292e-04 1.079953531753881889e-02 2.770478359753099644e-04 9.866527580475580733e-04 -2.001265724138931446e-03 -2.531330920792174751e-03 2.092458944143476413e-02 -1.053987973582105608e-01 -3.941288823026793675e-03 -1.308749041082579376e-02 4.624920767168071156e-02 -4.313875210565031038e-02 -1.652255341510062980e-02 -4.181120605044890554e-02 6.996643880888421541e-02 6.159895482455959165e-02 -6.798052188065575874e-02 -2.782173013999624800e-01 -1.256114875190221802e-01 8.603176057058067872e-02 1.584116478175069398e-01 2.127403968452372951e-01 1.848138659609341594e-01 0.000000000000000000e+00 0.000000000000000000e+00 0.000000000000000000e+00 1.282775234688379610e-15 -5.717374538253962315e-16 0.000000000000000000e+00 1.713636897164456575e-15 4.578476140702983046e-16 0.000000000000000000e+00 1.489923770418167151e-15 1.429417254250466833e-16 1.257862041213950851e-16 0.000000000000000000e+00 0.000000000000000000e+00 0.000000000000000000e+00 0.000000000000000000e+00 4.344334059940670649e-16 3.444633487431535688e-17 0.000000000000000000e+00 -6.217896943970412156e-16 2.530244143995715494e-16 1.489923770418167151e-15 1.429417254250466833e-16 1.257862041213950851e-16 0.000000000000000000e+00 2.572248153907269356e-16 2.952861075478881195e-16 0.000000000000000000e+00 7.651300281075704785e-16 6.403561755657119898e-16 0.000000000000000000e+00 7.089834764989463337e-17 4.054985067125255717e-16 1.489923770418167151e-15 1.429417254250466833e-16 1.257862041213950851e-16 0.000000000000000000e+00 0.000000000000000000e+00 0.000000000000000000e+00 0.000000000000000000e+00 -1.878812753152045851e-16 8.651756617761807564e-16 0.000000000000000000e+00 3.034630842884159006e-16 4.055391694682086792e-16 1.489923770418167151e-15 1.429417254250466833e-16 1.257862041213950851e-16 0.000000000000000000e+00 0.000000000000000000e+00 0.000000000000000000e+00 0.000000000000000000e+00 3.166743008913491199e-18 1.160819177636793951e-15 0.000000000000000000e+00 -8.546447419705952035e-16 -2.132107658108776855e-15 2.303506890114276340e-02 -9.159082837564971186e-03 6.772652959183124433e-02 1.307374146625540218e-02 -1.724331424919752984e-02 -1.290178854665851027e-01 -7.809563171903493445e-03 -1.850083386802597180e-02 -3.713008607734862299e-01 1.150287394853344441e-01 -2.262351784297199631e-01 3.983763469753996977e-01 0.000000000000000000e+00 0.000000000000000000e+00 0.000000000000000000e+00 -1.097233919566980017e-15 -1.938397953031444031e-16 0.000000000000000000e+00 -1.710697788059106916e-15 2.805207475108720161e-15 0.000000000000000000e+00 1.096234016492959355e-16 -1.555002287799839085e-16 1.197625285605459381e-15 0.000000000000000000e+00 0.000000000000000000e+00 0.000000000000000000e+00 0.000000000000000000e+00 4.359116334798099818e-16 -1.226248566294234013e-15 0.000000000000000000e+00 -8.006706189553841168e-16 -1.477631983663715133e-15 1.096234016492959355e-16 -1.555002287799839085e-16 1.197625285605459381e-15 0.000000000000000000e+00 2.320449635384102621e-16 -2.273663815910300968e-15 0.000000000000000000e+00 3.263036922313801146e-16 -1.843853402857619790e-15 0.000000000000000000e+00 -1.292332857742194809e-15 -4.525530609303265117e-16 1.096234016492959355e-16 -1.555002287799839085e-16 1.197625285605459381e-15 0.000000000000000000e+00 0.000000000000000000e+00 0.000000000000000000e+00 0.000000000000000000e+00 -5.301635184776357913e-16 -9.794048518190773679e-16 0.000000000000000000e+00 -2.192714620040446914e-15 8.150386453615467604e-16 1.096234016492959355e-16 -1.555002287799839085e-16 1.197625285605459381e-15 0.000000000000000000e+00 0.000000000000000000e+00 0.000000000000000000e+00 0.000000000000000000e+00 -3.860698774776722312e-16 -8.672561140739415152e-16 0.000000000000000000e+00 -3.351926254135055533e-16 -7.035723122525444805e-16
3.000000000000000000e+02 0.000000000000000000e+00 0.000000000000000000e+00 0.000000000000000000e+00 0.000000000000000000e+00 0.000000000000000000e+00 1.421699918302468321e-02 2.045004816656120772e-02 -2.056405756450276848e-03 3.282343063439233793e-02 -6.057851150139540938e-03 -5.381421832632011376e-02 -3.940860703767703858e-03 -8.405407693301692254e-03 1.474819619243720320e-02 -1.775052050291434438e-02 2.751091423287490081e-02 3.647039196689126628e-02 1.946181235004448840e-02 -2.350682795676992815e-02 -1.932750923181900810e-02 -1.846390511872783580e-02 5.900892585890934322e-03 5.194809667783922835e-02 2.735974466211854930e-02 2.817758569705607410e-02 -1.703762841462276578e-02 -6.925687002079829180e-03 -6.399021434124386142e-03 5.695793006146179262e-03 -1.196396138205940360e-03 -1.507961599044908233e-03 1.698167489686182655e-03 -2.166359810772381170e-03 -3.057650372074855166e-03 3.018961754159588638e-03 2.067556247140965153e-03 2.705259884847654572e-03 -2.294002494550684106e-03 -1.102355990308108913e-03 4.138886528320515068e-02 -2.053911262432776275e-01 1.993716799176602217e-02 -4.748262590193554761e-02 8.957968356017000089e-02 -1.241175388839159746e-02 -2.897272981558213396e-03 -2.405337889546801250e-02 2.850699558400391839e-02 4.900882739790560216e-02 -7.645738849767046152e-02 -2.137965698485943256e-01 -1.020356496681520536e-01 7.171972426114255061e-02 1.311621634387368229e-01 1.947779201647548142e-01 1.440762317997579534e-01 0.000000000000000000e+00 0.000000000000000000e+00 0.000000000000000000e+00 1.431513308907404039e-15 -3.958311256379609938e-16 0.000000000000000000e+00 9.954766602171587799e-16 -4.711058846198023027e-16 0.000000000000000000e+00 1.942176617208423357e-15 1.822313654051645132e-16 -1.307183192454918130e-17 0.000000000000000000e+00 0.000000000000000000e+00 0.000000000000000000e+00 0.000000000000000000e+00 -2.881690007237537390e-16 -8.905005110707403632e-17 0.000000000000000000e+00 -5.642515585330949668e-16 -1.691897732349736054e-16 1.942176617208423357e-15 1.822313654051645132e-16 -1.307183192454918130e-17 0.000000000000000000e+00 1.084595935375462149e-16 3.947663973893919499e-16 0.000000000000000000e+00 6.768306386941938878e-16 9.627231253099385409e-16 0.000000000000000000e+00 -3.831435782407400414e-16 5.503276922376371219e-16 1.942176617208423357e-15 1.822313654051645132e-16 -1.307183192454918130e-17 0.000000000000000000e+00 0.000000000000000000e+00 0.000000000000000000e+00 0.000000000000000000e+00 1.277701661828238329e-16 1.419673176074971755e-15 0.000000000000000000e+00 1.592051842451293182e-16 8.354690824554202012e-16 1.942176617208423357e-15 1.822313654051645132e-16 -1.307183192454918130e-17 0.000000000000000000e+00 0.000000000000000000e+00 0.000000000000000000e+00 0.000000000000000000e+00 -5.779515471618545475e-17 1.102939010797983797e-15 0.000000000000000000e+00 -3.875963644578462620e-16 -2.381339022540524905e-15 5.844867316888159581e-02 -2.762938746081746669e-04 6.541651305624852919e-02 -1.243420552285609722e-02 -1.424651045362821224e-03 -6.244833351582213671e-02 1.624045108445596602e-02 -1.007049884603397963e-02 -2.807413441373285967e-01 1.305272137519639664e-01 -1.964679087680921976e-01 3.223231073316870643e-01 0.000000000000000000e+00 0.000000000000000000e+00 0.000000000000000000e+00 -1.652552260079265128e-16 8.438197095235277432e-16 0.000000000000000000e+00 -1.297180364220827334e-15 1.976152693517911681e-15 0.000000000000000000e+00 -8.818092003066365657e-17 -5.070411725352164393e-17 6.895117708943791501e-16 0.000000000000000000e+00 0.000000000000000000e+00 0.000000000000000000e+00 0.000000000000000000e+00 2.312927524937136708e-16 -8.748163764836468400e-16 0.000000000000000000e+00 -1.630067468678194224e-16 -9.076275034191298202e-16 -8.818092003066365657e-17 -5.070411725352164393e-17 6.895117708943791501e-16 0.000000000000000000e+00 1.509297235014845274e-16 -2.446616250997333758e-15 0.000000000000000000e+00 5.313798390108881322e-16 -1.774988649605616605e-15 0.000000000000000000e+00 -3.068314175526980181e-16 -5.818945332880593706e-16 -8.818092003066365657e-17 -5.070411725352164393e-17 6.895117708943791501e-16 0.000000000000000000e+00 0.000000000000000000e+00 0.000000000000000000e+00 0.000000000000000000e+00 -7.175003807911394847e-16 -1.056011357296925833e-15 0.000000000000000000e+00 -2.400753138065343911e-15 7.303594772629005529e-16 -8.818092003066365657e-17 -5.070411725352164393e-17 6.895117708943791501e-16 0.000000000000000000e+00 0.000000000000000000e+00 0.000000000000000000e+00 0.000000000000000000e+00 -2.810342513894423834e-16 -2.880019900388210112e-16 0.000000000000000000e+00 1.106185706015289937e-16 -6.182584943789400517e-16
